<?xml version="1.0" encoding="utf-8"?>
<!-- Generator: Adobe Illustrator 16.0.3, SVG Export Plug-In . SVG Version: 6.00 Build 0)  -->
<!DOCTYPE svg PUBLIC "-//W3C//DTD SVG 1.1//EN" "http://www.w3.org/Graphics/SVG/1.1/DTD/svg11.dtd">
<svg version="1.1" id="Ebene_1" xmlns="http://www.w3.org/2000/svg" xmlns:xlink="http://www.w3.org/1999/xlink" x="0px" y="0px"
	 width="1200px" height="523.594px" viewBox="0 0 1200 523.594" enable-background="new 0 0 1200 523.594" xml:space="preserve">
<circle cx="232.037" cy="148.132" r="91.036"/>
<g>
	<polygon fill="none" points="1095.527,456.162 436.004,456.161 614.746,113.591 1095.527,113.591 	"/>
	<path d="M626.888,113.71l35.153,84.296h-15.204l-35.154-84.296H626.888z M697.195,113.71l-31.262,75.173l-7.663-18.246
		l23.72-56.927H697.195z"/>
	<path d="M720.792,113.71v84.296h-13.988V113.71H720.792z"/>
	<path d="M779.301,167.718l17.395,30.288h-16.3l-16.057-28.099h-13.137v28.099h-14.11v-42.209h7.055h15.936h8.393
		c1.946,0,3.771-0.365,5.474-1.095s3.203-1.722,4.501-2.98c1.296-1.256,2.312-2.737,3.041-4.44s1.095-3.527,1.095-5.474
		s-0.365-3.771-1.095-5.474c-0.729-1.703-1.745-3.202-3.041-4.5c-1.298-1.296-2.798-2.311-4.501-3.041s-3.527-1.095-5.474-1.095
		h-31.383V113.71h14.11h17.272c5.109,0,9.589,1.055,13.441,3.163c3.851,2.109,6.974,4.846,9.366,8.21
		c2.391,3.366,3.993,7.097,4.805,11.191c0.81,4.096,0.77,8.15-0.122,12.164c-0.893,4.014-2.718,7.745-5.474,11.19
		C787.733,163.077,784.003,165.772,779.301,167.718z"/>
	<path d="M864.205,113.588v14.11h-61.793v-14.11h2.798H864.205z M840.363,134.754v63.252h-13.988v-63.252H840.363z"/>
	<path d="M943.878,113.71v49.142c0,4.866-0.934,9.427-2.798,13.685c-1.866,4.257-4.379,7.988-7.542,11.191
		c-3.162,3.204-6.872,5.717-11.13,7.542c-4.257,1.825-8.818,2.737-13.685,2.737h-0.607c-4.866,0-9.428-0.912-13.685-2.737
		c-4.258-1.825-7.988-4.337-11.191-7.542c-3.204-3.203-5.717-6.934-7.541-11.191c-1.825-4.257-2.737-8.819-2.737-13.685V113.71
		h14.11v35.153v13.989c0,2.919,0.548,5.656,1.643,8.21c1.095,2.555,2.594,4.786,4.5,6.69c1.904,1.906,4.136,3.406,6.69,4.5
		s5.291,1.642,8.211,1.642h0.607c2.92,0,5.656-0.547,8.211-1.642s4.784-2.594,6.69-4.5c1.904-1.904,3.406-4.136,4.501-6.69
		c1.095-2.554,1.642-5.291,1.642-8.21v-13.989V113.71H943.878z"/>
	<path d="M983.288,113.71l35.154,84.296h-47.439l5.839-14.11h20.557l-14.11-33.694l-14.11,33.694l-5.839,14.11h-15.204
		L983.288,113.71z"/>
	<path d="M1070.99,184.018v13.989h-30.896h-14.11V113.71h14.11v70.307H1070.99z"/>
	<path fill="#E30613" d="M603.129,220.455c4.338,0,8.289,0.82,11.855,2.458c3.564,1.64,6.625,3.809,9.18,6.506
		c2.553,2.699,4.555,5.783,6,9.252s2.191,7.062,2.24,10.771c0.049,3.711-0.627,7.398-2.023,11.06
		c-1.398,3.664-3.639,6.989-6.723,9.975c3.084,3.086,5.324,6.458,6.723,10.12c1.396,3.664,2.072,7.351,2.023,11.06
		c-0.049,3.711-0.795,7.301-2.24,10.771s-3.447,6.555-6,9.252c-2.555,2.699-5.615,4.868-9.18,6.506
		c-3.566,1.64-7.518,2.458-11.855,2.458H579.42h-8.385h-8.385v-50.167v-8.24h8.385h8.385h23.709c3.471,0,6.434-1.229,8.893-3.687
		c2.457-2.458,3.686-5.421,3.686-8.891s-1.229-6.434-3.686-8.892c-2.459-2.458-5.422-3.687-8.893-3.687h-40.479v-16.625h8.385h8.385
		H603.129z M579.42,278.861v25.156h23.709c3.471,0,6.434-1.229,8.893-3.687c2.457-2.458,3.686-5.421,3.686-8.891
		s-1.229-6.433-3.686-8.891c-2.459-2.458-5.422-3.687-8.893-3.687H579.42z"/>
	<path fill="#E30613" d="M740.183,262.236v16.625c0,5.783-1.084,11.205-3.253,16.264c-2.168,5.06-5.132,9.495-8.891,13.301
		c-3.759,3.809-8.168,6.795-13.229,8.963c-5.06,2.168-10.481,3.253-16.265,3.253h-4.626c-5.782,0-11.204-1.084-16.264-3.253
		c-5.061-2.168-9.47-5.155-13.229-8.963c-3.759-3.806-6.748-8.241-8.964-13.301c-2.218-5.06-3.325-10.481-3.325-16.264v-16.625
		c0-5.783,1.107-11.205,3.325-16.265c2.216-5.06,5.205-9.492,8.964-13.3c3.759-3.806,8.168-6.795,13.229-8.963
		c5.06-2.168,10.481-3.253,16.264-3.253h4.626c5.783,0,11.205,1.084,16.265,3.253c5.061,2.168,9.47,5.157,13.229,8.963
		c3.759,3.809,6.723,8.241,8.891,13.3C739.099,251.031,740.183,256.453,740.183,262.236z M723.558,278.861v-16.625
		c0-3.47-0.651-6.723-1.952-9.759s-3.086-5.71-5.349-8.023c-2.267-2.313-4.916-4.121-7.952-5.421
		c-3.036-1.301-6.289-1.952-9.759-1.952h-4.626c-3.47,0-6.723,0.651-9.759,1.952c-3.035,1.301-5.688,3.108-7.951,5.421
		c-2.266,2.313-4.048,4.987-5.349,8.023c-1.302,3.036-1.952,6.289-1.952,9.759v16.625c0,3.47,0.65,6.723,1.952,9.759
		c1.301,3.036,3.083,5.688,5.349,7.951c2.264,2.266,4.916,4.048,7.951,5.349c3.036,1.301,6.289,1.952,9.759,1.952h4.626
		c3.47,0,6.723-0.65,9.759-1.952c3.036-1.301,5.686-3.083,7.952-5.349c2.263-2.263,4.048-4.916,5.349-7.951
		C722.906,285.584,723.558,282.331,723.558,278.861z"/>
	<path fill="#E30613" d="M775.457,220.455l52.769,100.188h-18.795l-17.059-32.095l-9.397-17.927l-26.457-50.167H775.457z
		 M778.203,279.584l9.397,17.927l-12.144,23.131h-18.939L778.203,279.584z M828.226,220.455l-21.686,41.203l-9.397-17.927
		l12.288-23.276h14.168H828.226z"/>
	<path fill="#E30613" d="M865.524,220.455v100.188h-16.625V220.455H865.524z"/>
	<path fill="#E30613" d="M910.341,220.455l66.937,100.188h-16.77h-3.325l-46.842-70.117v70.117h-16.625V220.455H910.341z
		 M977.277,220.455v85.152l-16.77-25.011v-60.142H977.277z"/>
	<path fill="#E30613" d="M1070.382,303.872v16.771h-25.155c-6.939,0-13.445-1.324-19.518-3.976
		c-6.071-2.65-11.373-6.239-15.902-10.771c-4.531-4.529-8.096-9.831-10.698-15.903c-2.603-6.072-3.903-12.578-3.903-19.518
		s1.301-13.445,3.903-19.517c2.603-6.072,6.167-11.396,10.698-15.975c4.529-4.577,9.831-8.168,15.902-10.771
		c6.072-2.602,12.578-3.903,19.518-3.903h25.155v16.77h-25.155c-4.626,0-8.964,0.868-13.012,2.603s-7.59,4.12-10.626,7.156
		s-5.421,6.578-7.156,10.626c-1.734,4.048-2.603,8.385-2.603,13.011c0,4.626,0.868,8.964,2.603,13.012
		c1.735,4.048,4.12,7.59,7.156,10.626s6.578,5.421,10.626,7.156s8.386,2.602,13.012,2.602H1070.382z M1070.382,278.861v16.626
		h-16.771v-16.626h-31.95c-1.062-2.986-1.59-5.783-1.59-8.385c0-2.602,0.528-5.396,1.59-8.385h48.721V278.861z"/>
	<path d="M551.662,341.501v12.679h-29.621c-1.749,0-3.388,0.328-4.918,0.983s-2.879,1.568-4.044,2.732
		c-1.167,1.167-2.077,2.497-2.733,3.99c-0.656,1.494-0.983,3.115-0.983,4.864v12.679h-12.57V366.75c0-3.498,0.656-6.777,1.967-9.837
		c1.312-3.061,3.115-5.738,5.411-8.034s4.973-4.099,8.034-5.411c3.061-1.312,6.339-1.967,9.837-1.967H551.662z M551.662,379.429
		v12.679c0,3.498-0.656,6.777-1.967,9.837c-1.312,3.061-3.115,5.738-5.411,8.034c-2.295,2.295-4.973,4.099-8.033,5.411
		c-3.061,1.312-6.34,1.967-9.837,1.967h-29.621v-12.679h29.621c1.749,0,3.37-0.328,4.864-0.984c1.493-0.656,2.823-1.547,3.99-2.678
		c1.165-1.129,2.077-2.459,2.732-3.99s0.984-3.169,0.984-4.918v-12.679H551.662z"/>
	<path d="M579.861,341.61v75.746h-12.569V341.61H579.861z"/>
	<path d="M610.574,341.501l31.588,75.855h-13.663l-17.925-42.955v42.955h-12.68v-75.855H610.574z M672.657,341.501v75.855h-12.57
		v-42.955l-14.537,34.757l-6.776-16.504l21.313-51.153H672.657z"/>
	<path d="M750.588,341.61v44.158c0,4.372-0.839,8.471-2.514,12.296c-1.678,3.825-3.936,7.178-6.777,10.056
		c-2.842,2.879-6.176,5.137-10.001,6.776c-3.825,1.64-7.924,2.459-12.296,2.459h-0.547c-4.372,0-8.471-0.82-12.296-2.459
		c-3.826-1.639-7.179-3.897-10.056-6.776c-2.88-2.878-5.138-6.23-6.777-10.056c-1.64-3.826-2.459-7.924-2.459-12.296V341.61h12.679
		v31.588v12.57c0,2.623,0.492,5.083,1.476,7.378c0.983,2.295,2.331,4.3,4.044,6.011c1.712,1.713,3.717,3.061,6.012,4.044
		c2.296,0.983,4.755,1.476,7.378,1.476H719c2.623,0,5.082-0.492,7.378-1.476c2.295-0.984,4.298-2.332,6.011-4.044
		c1.712-1.711,3.061-3.716,4.045-6.011c0.983-2.295,1.476-4.755,1.476-7.378v-12.57V341.61H750.588z"/>
	<path d="M807.643,404.786v12.57h-27.762h-12.68V341.61h12.68v63.176H807.643z"/>
	<path d="M845.789,341.61l31.588,75.746h-42.628l5.247-12.679h18.472l-12.679-30.276l-12.68,30.276l-5.246,12.679H814.2
		L845.789,341.61z"/>
	<path d="M934.322,341.501v12.679h-55.525v-12.679h2.514H934.322z M912.898,360.52v56.836h-12.569V360.52H912.898z"/>
	<path d="M1008.429,373.198v12.57c0,4.372-0.82,8.471-2.46,12.296c-1.64,3.825-3.88,7.178-6.722,10.056
		c-2.842,2.879-6.176,5.137-10.001,6.776c-3.826,1.64-7.925,2.459-12.297,2.459h-3.497c-4.372,0-8.471-0.82-12.297-2.459
		c-3.825-1.639-7.159-3.897-10.001-6.776c-2.842-2.878-5.101-6.23-6.776-10.056c-1.677-3.826-2.514-7.924-2.514-12.296v-12.57
		c0-4.372,0.837-8.471,2.514-12.296c1.676-3.826,3.935-7.176,6.776-10.056c2.842-2.877,6.176-5.137,10.001-6.776
		c3.826-1.64,7.925-2.459,12.297-2.459h3.497c4.372,0,8.471,0.82,12.297,2.459c3.825,1.639,7.159,3.899,10.001,6.776
		c2.842,2.879,5.082,6.23,6.722,10.056S1008.429,368.826,1008.429,373.198z M995.858,385.768v-12.57
		c0-2.623-0.491-5.083-1.476-7.378c-0.983-2.295-2.333-4.317-4.044-6.066c-1.713-1.749-3.716-3.115-6.012-4.099
		c-2.295-0.983-4.754-1.475-7.378-1.475h-3.497c-2.623,0-5.083,0.492-7.378,1.475c-2.296,0.984-4.301,2.35-6.012,4.099
		c-1.713,1.749-3.061,3.771-4.044,6.066c-0.983,2.295-1.476,4.755-1.476,7.378v12.57c0,2.623,0.492,5.083,1.476,7.378
		c0.983,2.295,2.331,4.3,4.044,6.011c1.711,1.713,3.716,3.061,6.012,4.044c2.295,0.983,4.755,1.476,7.378,1.476h3.497
		c2.624,0,5.083-0.492,7.378-1.476c2.296-0.984,4.299-2.332,6.012-4.044c1.711-1.711,3.061-3.716,4.044-6.011
		C995.367,390.851,995.858,388.391,995.858,385.768z"/>
	<path d="M1057.394,390.14l15.63,27.216h-14.646l-14.428-25.249h-11.805v25.249h-12.679v-37.927h6.34h14.318h7.542
		c1.748,0,3.388-0.328,4.918-0.984s2.878-1.547,4.044-2.678c1.165-1.129,2.077-2.459,2.733-3.99c0.655-1.53,0.983-3.169,0.983-4.918
		s-0.328-3.388-0.983-4.918c-0.656-1.53-1.568-2.878-2.733-4.044c-1.166-1.165-2.514-2.077-4.044-2.732s-3.17-0.983-4.918-0.983
		h-28.2v-12.57h12.679h15.521c4.591,0,8.615,0.948,12.077,2.842c3.46,1.896,6.267,4.355,8.416,7.378
		c2.148,3.024,3.589,6.377,4.317,10.056c0.728,3.68,0.692,7.323-0.108,10.93c-0.803,3.607-2.442,6.959-4.919,10.056
		C1064.971,385.969,1061.619,388.391,1057.394,390.14z"/>
</g>
<path d="M195.631,263.365c0,0-24.181,32.57,5.838,67.853c36.665,43.092,133.801,87.545,200.368,86.378
	c0,0,72.925-60.89,130.274-182.668c0,0-70.801-16.284-51.873-47.58l-98.004,145.436c0,0-11.761-9.845-26.59-18.543
	C335.061,302.17,325.5,299,309.491,303.898c-3.944-24.365-39.524-46.906-39.524-46.906S224,230.667,195.631,263.365z"/>
<path fill="#E30613" d="M527.699,248.745l50.499-89.27c0,0,11.417-28.83,6.475-44.679c-4.942-15.849-28.559-25.413-53.22-35.346
	c-24.659-9.933-47.672-14.583-59.224,21.248c0,0-7.028-16.591-18.705-10.168c0,0-33.024,13.971-24.305,68.422
	c1.281,8.798,19.725,53.597,19.725,53.597l-24.446,54.92c0,0,19.75,11.209,43.737,19.728c23.989,8.521,44.38,4.69,44.38,4.69
	L527.699,248.745z"/>
<path fill="#FFFFFF" d="M217.762,153.885l114.463-47.612l6.626,42.598c0,0,0.127,19.623-6.505,22.919
	c-6.629,3.296-30.414,3.145-42.083,6.878c-12.365,4.198-26.548,24.208-35.572,26.512c-17.979,4.591-36.2-1.914-36.2-1.914
	L217.762,153.885z"/>
<polygon fill="#FFFFFF" points="226.943,195.539 167.34,167.149 167.34,145.09 226.943,168.073 "/>
<path opacity="0.5" fill="#E94E1B" d="M429.838,122.448c0,0-49.007,220.786-325.118,295.125c0,0,252.511,80.518,422.941-168.848
	l50.537-89.25c0,0-28.605,36.678-92.1,27.385C422.601,177.568,429.838,122.448,429.838,122.448z"/>
<g>
</g>
<g>
</g>
<g>
</g>
<g>
</g>
<g>
</g>
<g>
</g>
</svg>
